<svg width="32" height="32" viewBox="0 0 32 32" fill="none" xmlns="http://www.w3.org/2000/svg">
<path d="M24.21 1.715H7.79001C6.62001 1.715 5.67001 2.715 5.67001 3.935V28.065C5.67001 29.295 6.62001 30.285 7.79001 30.285H24.21C25.38 30.285 26.33 29.285 26.33 28.065V3.935C26.33 2.705 25.38 1.715 24.21 1.715ZM15.76 5.765C15.05 5.765 14.47 5.165 14.47 4.415C14.47 3.665 15.05 3.065 15.76 3.065C16.47 3.065 17.05 3.665 17.05 4.415C17.05 5.165 16.47 5.765 15.76 5.765Z" fill="url(#paint0_linear_190_328)"/>
<path d="M24.14 1.785H7.88C6.72 1.785 5.78 2.775 5.78 3.995V27.965C5.78 29.185 6.72 30.175 7.88 30.175H24.14C25.3 30.175 26.24 29.185 26.24 27.965V3.995C26.24 2.775 25.3 1.785 24.14 1.785ZM15.78 5.805C15.08 5.805 14.5 5.205 14.5 4.465C14.5 3.725 15.07 3.125 15.78 3.125C16.49 3.125 17.06 3.725 17.06 4.465C17.06 5.205 16.49 5.805 15.78 5.805Z" fill="url(#paint1_linear_190_328)"/>
<path d="M5.75 28.105C5.75 29.265 6.66 30.205 7.78 30.205H24.18C25.3 30.205 26.21 29.265 26.21 28.105V17.715H5.75V28.105Z" fill="#6D6476"/>
<path d="M24.15 1.855H7.88C6.72 1.855 5.78 2.795 5.78 3.955V4.905H14.54C14.47 4.725 14.43 4.555 14.43 4.365C14.43 3.625 15.03 3.035 15.76 3.035C16.49 3.035 17.09 3.635 17.09 4.365C17.09 4.555 17.05 4.725 16.98 4.895H26.23V3.955C26.23 2.795 25.29 1.855 24.13 1.855H24.15Z" fill="#6D6476"/>
<path d="M22.04 5.385L21.76 5.945H21.68L21.94 5.425H21.59V5.365H22.04V5.385Z" fill="#444549"/>
<path d="M22.15 5.925V5.855C22.15 5.855 22.25 5.905 22.31 5.905C22.36 5.905 22.4 5.905 22.43 5.875C22.46 5.855 22.47 5.825 22.47 5.795C22.47 5.715 22.41 5.685 22.28 5.685H22.22V5.625H22.27C22.38 5.625 22.44 5.585 22.44 5.515C22.44 5.445 22.4 5.415 22.31 5.415C22.26 5.415 22.22 5.415 22.17 5.455V5.395C22.17 5.395 22.27 5.365 22.33 5.365C22.39 5.365 22.44 5.365 22.47 5.405C22.51 5.435 22.52 5.465 22.52 5.505C22.52 5.585 22.47 5.635 22.38 5.655C22.38 5.655 22.47 5.675 22.5 5.705C22.53 5.735 22.54 5.765 22.54 5.795C22.54 5.845 22.52 5.885 22.47 5.925C22.43 5.955 22.37 5.975 22.29 5.975C22.22 5.975 22.17 5.965 22.13 5.945L22.15 5.925Z" fill="#444549"/>
<path d="M22.7 5.925V5.855C22.7 5.855 22.8 5.895 22.85 5.895C22.9 5.895 22.94 5.885 22.97 5.865C23 5.845 23.01 5.815 23.01 5.775C23.01 5.735 23 5.705 22.96 5.685C22.93 5.665 22.89 5.655 22.83 5.655H22.72V5.365H23.06V5.425H22.8V5.595H22.86C22.93 5.595 22.99 5.615 23.03 5.645C23.07 5.675 23.09 5.715 23.09 5.775C23.09 5.835 23.07 5.875 23.02 5.915C22.98 5.945 22.92 5.965 22.84 5.965C22.78 5.965 22.73 5.965 22.7 5.945V5.925Z" fill="#444549"/>
<path d="M23.23 5.925V5.855C23.23 5.855 23.33 5.895 23.38 5.895C23.43 5.895 23.47 5.885 23.5 5.865C23.53 5.845 23.54 5.815 23.54 5.775C23.54 5.735 23.53 5.705 23.49 5.685C23.46 5.665 23.42 5.655 23.36 5.655H23.25V5.365H23.59V5.425H23.33V5.595H23.39C23.46 5.595 23.52 5.615 23.56 5.645C23.6 5.675 23.62 5.715 23.62 5.775C23.62 5.835 23.6 5.875 23.55 5.915C23.51 5.945 23.45 5.965 23.37 5.965C23.31 5.965 23.26 5.965 23.23 5.945V5.925Z" fill="#444549"/>
<path d="M24.14 5.365V5.425C24.14 5.425 24.07 5.405 24.03 5.405C23.97 5.405 23.92 5.425 23.88 5.475C23.84 5.525 23.82 5.585 23.82 5.655C23.82 5.655 23.9 5.575 23.98 5.575C24.04 5.575 24.09 5.595 24.12 5.625C24.15 5.655 24.17 5.705 24.17 5.755C24.17 5.805 24.15 5.855 24.11 5.895C24.07 5.935 24.02 5.945 23.95 5.945C23.88 5.945 23.83 5.925 23.79 5.875C23.75 5.825 23.73 5.765 23.73 5.675C23.73 5.575 23.76 5.495 23.81 5.435C23.86 5.375 23.93 5.345 24.02 5.345C24.07 5.345 24.11 5.345 24.14 5.365ZM23.97 5.635C23.97 5.635 23.9 5.635 23.87 5.675C23.84 5.695 23.83 5.725 23.83 5.755C23.83 5.795 23.84 5.825 23.87 5.855C23.9 5.885 23.93 5.895 23.97 5.895C24.01 5.895 24.04 5.885 24.07 5.855C24.1 5.825 24.11 5.795 24.11 5.765C24.11 5.725 24.1 5.695 24.07 5.665C24.05 5.645 24.01 5.625 23.97 5.625V5.635Z" fill="#444549"/>
<path d="M24.49 5.955C24.42 5.955 24.37 5.935 24.33 5.885C24.29 5.835 24.27 5.765 24.27 5.675C24.27 5.575 24.29 5.495 24.33 5.445C24.37 5.395 24.43 5.365 24.5 5.365C24.65 5.365 24.72 5.465 24.72 5.665C24.72 5.765 24.7 5.835 24.66 5.895C24.62 5.955 24.56 5.975 24.49 5.975V5.955ZM24.5 5.405C24.4 5.405 24.35 5.485 24.35 5.655C24.35 5.815 24.4 5.895 24.5 5.895C24.6 5.895 24.64 5.815 24.64 5.655C24.64 5.495 24.59 5.405 24.5 5.405Z" fill="#444549"/>
<path d="M24.96 5.635C24.88 5.605 24.84 5.555 24.84 5.495C24.84 5.455 24.86 5.415 24.9 5.395C24.94 5.365 24.99 5.355 25.05 5.355C25.1 5.355 25.15 5.355 25.18 5.395C25.21 5.425 25.23 5.455 25.23 5.495C25.23 5.555 25.19 5.605 25.1 5.645C25.2 5.675 25.25 5.725 25.25 5.805C25.25 5.855 25.23 5.895 25.19 5.915C25.15 5.945 25.09 5.955 25.02 5.955C24.96 5.955 24.91 5.945 24.87 5.915C24.83 5.885 24.81 5.855 24.81 5.805C24.81 5.735 24.86 5.675 24.96 5.645V5.635ZM25.02 5.675C24.93 5.705 24.89 5.745 24.89 5.805C24.89 5.835 24.9 5.855 24.93 5.875C24.96 5.895 24.99 5.905 25.03 5.905C25.07 5.905 25.1 5.905 25.13 5.875C25.16 5.855 25.17 5.835 25.17 5.805C25.17 5.745 25.12 5.705 25.03 5.675H25.02ZM25.14 5.495C25.14 5.495 25.14 5.445 25.11 5.435C25.09 5.415 25.06 5.415 25.03 5.415C25 5.415 24.97 5.415 24.95 5.435C24.93 5.455 24.92 5.475 24.92 5.495C24.92 5.545 24.96 5.585 25.03 5.605C25.11 5.575 25.15 5.545 25.15 5.495H25.14Z" fill="#444549"/>
<path d="M20.84 29.935H22.41L23.37 27.955H21.79L20.84 29.935Z" fill="url(#paint2_linear_190_328)"/>
<path d="M8.72003 29.935H9.14003L10.09 27.955H9.68003L8.72003 29.935Z" fill="url(#paint3_linear_190_328)"/>
<path d="M14.12 29.935H14.32L15.27 27.955H15.07L14.12 29.935Z" fill="url(#paint4_linear_190_328)"/>
<path d="M13.72 29.935H13.92L14.87 27.955H14.67L13.72 29.935Z" fill="url(#paint5_linear_190_328)"/>
<path d="M12.33 29.935H12.53L13.49 27.955H13.28L12.33 29.935Z" fill="url(#paint6_linear_190_328)"/>
<path d="M26.03 27.955H25.21L24.27 29.915C25.23 29.785 25.98 28.965 26.03 27.955Z" fill="url(#paint7_linear_190_328)"/>
<path d="M7.33002 29.845L8.24002 27.955H6.66002L6.18002 28.945C6.44002 29.375 6.84002 29.705 7.32002 29.845H7.33002Z" fill="url(#paint8_linear_190_328)"/>
<path d="M18.04 29.935H19.62L20.57 27.955H19L18.04 29.935Z" fill="url(#paint9_linear_190_328)"/>
<path d="M15 29.935H17.68L18.63 27.955H15.96L15 29.935Z" fill="url(#paint10_linear_190_328)"/>
<path d="M25.09 15.445H24.91V17.445H25.09V15.445Z" fill="#444549"/>
<path d="M24.64 15.445H24.46V17.445H24.64V15.445Z" fill="#444549"/>
<path d="M24.17 15.445H23.99V17.445H24.17V15.445Z" fill="#444549"/>
<path d="M12.82 3.235C12.82 3.235 12.8 3.215 12.79 3.205C12.79 3.205 12.77 3.185 12.76 3.175C12.76 3.175 12.74 3.175 12.73 3.155C12.73 3.155 12.78 3.135 12.8 3.125C12.82 3.115 12.84 3.095 12.85 3.085C12.86 3.065 12.88 3.045 12.88 3.025C12.88 3.005 12.89 2.975 12.89 2.955C12.89 2.925 12.89 2.895 12.87 2.865C12.86 2.835 12.84 2.815 12.82 2.805C12.8 2.785 12.77 2.775 12.75 2.765C12.72 2.765 12.69 2.765 12.66 2.765H12.43V3.525H12.52V3.205H12.63C12.63 3.205 12.66 3.205 12.67 3.225C12.68 3.225 12.69 3.245 12.7 3.255C12.71 3.265 12.72 3.285 12.73 3.305L12.86 3.515H12.97L12.83 3.285C12.83 3.285 12.81 3.255 12.8 3.245H12.82V3.235ZM12.71 3.095C12.71 3.095 12.67 3.095 12.65 3.095H12.53V2.815H12.65C12.65 2.815 12.74 2.815 12.76 2.845C12.79 2.865 12.8 2.895 12.8 2.945C12.8 2.965 12.8 2.985 12.79 3.005C12.79 3.025 12.77 3.035 12.76 3.055C12.75 3.055 12.73 3.075 12.71 3.085V3.095Z" fill="#515153"/>
<path d="M11.03 3.155H11.31V3.075H11.03V2.825H11.33V2.745H10.94V3.505H11.35V3.425H11.03V3.155Z" fill="#515153"/>
<path d="M9.35004 2.825H9.57004V3.505H9.66004V2.825H9.88004V2.745H9.35004V2.825Z" fill="#515153"/>
<path d="M8.19003 3.285V3.395C8.19003 3.395 8.19003 3.365 8.16003 3.345L7.78003 2.745H7.66003V3.505H7.75003V2.855C7.75003 2.855 7.75003 2.885 7.77003 2.905L8.16003 3.515H8.27003V2.755H8.18003V3.295L8.19003 3.285Z" fill="#515153"/>
<path d="M15.98 3.045L16.04 2.885C16.04 2.885 16.04 2.855 16.05 2.835C16.05 2.835 16.05 2.875 16.06 2.885L16.14 3.095C16.14 3.095 16.22 3.125 16.25 3.145L16.1 2.745H16.01L15.9 3.035C15.9 3.035 15.96 3.035 15.98 3.055V3.045Z" fill="#515153"/>
<path d="M6.52002 2.745H6.43002V3.505H6.52002V2.745Z" fill="#515153"/>
<path d="M20.45 2.735C20.34 2.735 20.25 2.775 20.18 2.845C20.11 2.915 20.08 3.015 20.08 3.135C20.08 3.245 20.11 3.345 20.18 3.415C20.25 3.485 20.33 3.525 20.44 3.525C20.55 3.525 20.64 3.485 20.7 3.415C20.76 3.345 20.8 3.245 20.8 3.115C20.8 3.005 20.77 2.905 20.7 2.835C20.64 2.765 20.55 2.725 20.45 2.725V2.735ZM20.63 3.355C20.58 3.405 20.52 3.435 20.43 3.435C20.35 3.435 20.29 3.405 20.24 3.345C20.19 3.285 20.17 3.215 20.17 3.115C20.17 3.015 20.19 2.945 20.24 2.885C20.29 2.825 20.36 2.795 20.44 2.795C20.52 2.795 20.59 2.825 20.63 2.875C20.68 2.925 20.7 3.005 20.7 3.105C20.7 3.205 20.68 3.275 20.63 3.335V3.355Z" fill="#515153"/>
<path d="M23.86 2.745L23.57 3.505H23.67L23.75 3.295H24.07L24.15 3.505H24.25L23.96 2.745H23.86ZM23.78 3.215L23.9 2.895C23.9 2.895 23.9 2.865 23.91 2.845C23.91 2.845 23.91 2.885 23.92 2.895L24.04 3.215H23.78Z" fill="#515153"/>
<path d="M25.4 3.425V2.745H25.31V3.505H25.7V3.425H25.4Z" fill="#515153"/>
<path d="M22.42 3.285V3.395C22.42 3.395 22.41 3.365 22.39 3.345L22.01 2.745H21.89V3.505H21.98V2.855C21.98 2.855 21.99 2.885 22 2.905L22.39 3.515H22.5V2.755H22.41V3.295H22.42V3.285Z" fill="#515153"/>
<path d="M18.98 2.745H18.89V3.505H18.98V2.745Z" fill="#515153"/>
<path d="M14.15 2.895L14.54 3.505H14.65V2.745H14.56V3.395C14.56 3.395 14.55 3.365 14.53 3.345L14.15 2.745H14.03V3.505H14.12V2.855C14.12 2.855 14.13 2.885 14.14 2.905L14.15 2.895Z" fill="#515153"/>
<path d="M17.3 2.825H17.52V3.505H17.6V2.825H17.82V2.745H17.3V2.825Z" fill="#515153"/>
<path d="M15.77 3.105C15.03 3.105 14.44 3.705 14.44 4.445C14.44 5.185 15.04 5.785 15.77 5.785C16.5 5.785 17.1 5.185 17.1 4.445C17.1 3.705 16.5 3.105 15.77 3.105ZM15.77 5.735C15.07 5.735 14.5 5.155 14.5 4.455C14.5 3.755 15.07 3.175 15.77 3.175C16.47 3.175 17.04 3.755 17.04 4.455C17.04 5.155 16.47 5.735 15.77 5.735Z" fill="url(#paint11_linear_190_328)"/>
<path d="M26.05 13.185V23.605C25.4 23.565 24.64 23.505 23.76 23.415C22.36 23.275 21.75 23.105 20.31 21.895C18.47 20.345 12.88 21.375 12.12 22.075C11.66 22.495 11.34 23.645 10.07 23.645C7.66 23.635 6.56 25.315 6.03 25.235V13.955C6.03 12.985 6.95 12.015 8.08 11.805L23.99 11.825C25.12 11.605 26.04 18.315 26.04 19.285V13.185H26.05Z" fill="url(#paint12_linear_190_328)"/>
<path d="M10.4 24.975L9.86002 22.795L9.88002 27.165H8.65002V19.875H10.04L10.85 22.785L11.65 19.875H13.01V27.165L11.84 27.195L11.8 22.915L11.28 24.975H10.4Z" fill="url(#paint13_linear_190_328)"/>
<path d="M17.26 27.165L17 25.435H15.61L15.31 27.165H13.99L15.38 19.875H17.25L18.65 27.165H17.26ZM16.82 24.175L16.36 21.105L15.84 24.175H16.82Z" fill="url(#paint14_linear_190_328)"/>
<path d="M19.57 27.165V19.875H21.64C22.27 19.875 22.76 20.035 23.11 20.365C23.46 20.695 23.64 21.185 23.64 21.855V23.005C23.64 23.665 23.47 24.145 23.13 24.445C22.79 24.745 22.29 24.905 21.65 24.905H21.01V27.175H19.57V27.165ZM21.01 23.655H21.56C21.76 23.655 21.91 23.595 22.01 23.485C22.11 23.365 22.16 23.155 22.16 22.835V21.975C22.16 21.645 22.11 21.425 22.01 21.305C21.91 21.185 21.76 21.125 21.56 21.125H21.01V23.645V23.655Z" fill="url(#paint15_linear_190_328)"/>
<path d="M8.98002 19.545C8.86002 19.545 8.77002 19.515 8.70002 19.455C8.64002 19.395 8.61002 19.305 8.61002 19.185V18.815C8.61002 18.695 8.64002 18.595 8.70002 18.535C8.76002 18.475 8.85002 18.445 8.98002 18.445C9.11002 18.445 9.19002 18.475 9.24002 18.535C9.29002 18.595 9.33002 18.695 9.33002 18.835H9.08002C9.08002 18.765 9.08002 18.705 9.05002 18.675C9.05002 18.645 9.01002 18.635 8.97002 18.635C8.93002 18.635 8.90002 18.655 8.88002 18.685C8.86002 18.715 8.86002 18.775 8.86002 18.845V19.165C8.86002 19.235 8.86002 19.295 8.88002 19.325C8.90002 19.355 8.93002 19.375 8.97002 19.375C9.01002 19.375 9.04002 19.365 9.05002 19.335C9.06002 19.305 9.07002 19.255 9.08002 19.165H9.33002C9.33002 19.315 9.29002 19.415 9.24002 19.475C9.19002 19.535 9.10002 19.565 8.98002 19.565V19.545Z" fill="url(#paint16_linear_190_328)"/>
<path d="M10.69 19.545C10.58 19.545 10.49 19.515 10.43 19.455C10.37 19.395 10.34 19.305 10.34 19.195V18.805C10.34 18.695 10.37 18.605 10.43 18.545C10.49 18.485 10.58 18.445 10.69 18.445C10.8 18.445 10.89 18.475 10.95 18.545C11.01 18.615 11.04 18.695 11.04 18.805V19.195C11.04 19.305 11.01 19.395 10.95 19.455C10.89 19.515 10.8 19.545 10.69 19.545ZM10.69 19.365C10.69 19.365 10.75 19.355 10.76 19.325C10.77 19.295 10.78 19.245 10.78 19.175V18.825C10.78 18.755 10.78 18.695 10.76 18.675C10.75 18.645 10.72 18.635 10.69 18.635C10.66 18.635 10.63 18.645 10.62 18.675C10.61 18.705 10.6 18.755 10.6 18.825V19.175C10.6 19.245 10.6 19.295 10.62 19.325C10.63 19.355 10.66 19.365 10.69 19.365Z" fill="url(#paint17_linear_190_328)"/>
<path d="M12.35 19.215L12.26 18.835L12.29 19.535H12.07V18.455H12.29L12.43 18.955L12.57 18.455H12.79V19.535H12.57L12.6 18.855L12.51 19.215H12.35Z" fill="url(#paint18_linear_190_328)"/>
<path d="M14.09 19.215L14 18.835L14.03 19.535H13.81V18.455H14.03L14.17 18.955L14.31 18.455H14.53V19.535H14.31L14.34 18.855L14.25 19.215H14.09Z" fill="url(#paint19_linear_190_328)"/>
<path d="M15.9 19.545C15.78 19.545 15.69 19.515 15.63 19.455C15.57 19.395 15.54 19.295 15.54 19.165V18.455H15.79V19.155C15.79 19.235 15.79 19.285 15.81 19.305C15.82 19.335 15.85 19.345 15.89 19.345C15.93 19.345 15.95 19.335 15.97 19.305C15.98 19.275 15.99 19.225 15.99 19.155V18.455H16.24V19.165C16.24 19.295 16.21 19.395 16.15 19.455C16.09 19.515 16 19.545 15.88 19.545H15.9Z" fill="url(#paint20_linear_190_328)"/>
<path d="M17.7 19.535L17.5 18.805V19.535H17.29V18.455H17.56L17.78 19.225V18.455H17.99V19.535H17.7Z" fill="url(#paint21_linear_190_328)"/>
<path d="M19.02 19.535V19.345H19.25V18.635H19.02V18.445H19.72V18.635H19.49V19.345H19.72V19.535H19.02Z" fill="url(#paint22_linear_190_328)"/>
<path d="M20.98 19.535V18.635H20.73V18.445H21.48V18.635H21.23V19.535H20.98Z" fill="url(#paint23_linear_190_328)"/>
<path d="M22.96 19.535H22.71V19.135L22.44 18.455H22.69L22.83 18.875L22.98 18.455H23.23L22.96 19.135V19.535Z" fill="url(#paint24_linear_190_328)"/>
<path d="M25.47 9.555C24.87 9.195 24.8 9.555 24.35 9.805C24.23 9.865 24.08 9.865 23.96 9.935C23.61 10.145 23.12 10.665 22.73 10.725C22.28 10.795 22.16 10.065 21.52 10.315C21.01 10.515 20.77 11.585 20.4 11.965C20.25 12.125 19.91 12.325 19.72 12.405C19.55 12.485 18.95 12.755 18.96 12.445C18.96 12.375 19.03 12.175 19.06 12.065C19.11 11.845 19.57 10.365 19.65 10.315L21.53 10.095L21.82 9.935C21.94 9.875 21.94 9.685 21.82 9.625C21.36 9.395 20.31 9.625 19.94 9.625C19.96 9.325 20.74 8.925 20.44 8.695C20.17 8.485 19.83 8.805 19.65 9.015C19.51 9.185 19.31 9.665 19.28 9.685C19.15 9.775 18.63 9.585 18.43 9.815C18.32 9.915 18.38 10.065 18.36 10.175C18.59 10.355 18.72 10.365 19 10.335C18.82 10.975 18.39 11.915 18.37 12.575C18.34 13.765 20.23 12.935 20.68 12.505C21.42 13.915 22.6 12.625 22.61 11.455L23.44 11.135C23.24 11.815 22.86 12.555 22.8 13.275C22.75 13.795 22.86 14.355 22.75 14.875C22.77 15.125 23.08 15.305 23.26 15.165C23.52 14.955 23.77 13.125 23.89 12.685C24.5 12.465 25.28 12.095 25.69 11.545C26.19 10.885 25.97 9.845 25.47 9.545V9.555ZM21.52 12.405C21.38 12.445 21.19 12.385 21.16 12.225C21.14 12.115 21.94 11.215 22.01 11.305C22.12 11.445 21.71 12.345 21.51 12.405H21.52ZM25.18 11.055C25.12 11.335 24.4 11.875 24.09 11.955C24.24 11.495 24.54 10.355 24.95 10.145C25.23 9.995 25.2 10.695 25.18 11.055Z" fill="black"/>
<path d="M18.24 10.065L17.23 9.975C17.14 9.985 17.04 9.975 16.93 9.945L17.68 8.175C17.79 8.455 17.83 8.875 17.77 9.245C17.74 9.415 17.83 9.575 17.98 9.605H18C18.13 9.635 18.25 9.555 18.3 9.415C18.32 9.345 18.35 9.265 18.36 9.175C18.43 8.625 18.31 7.225 17.58 7.485C17.07 7.665 16.48 9.455 16.24 10.015C16.2 10.105 16.09 10.105 16.08 10.175C16.05 10.345 16.1 10.575 16.08 10.765C15.87 10.625 15.92 10.325 15.76 10.115C15.21 9.385 14.44 9.845 14.23 10.665C14.18 10.855 14.02 11.595 14 11.785C13.88 12.885 14.75 12.935 15.36 12.345L15.86 11.575C15.89 12.025 15.43 13.615 15.66 13.895C15.82 14.085 16.12 13.915 16.2 13.695C16.42 13.085 16.35 11.065 16.68 10.685C16.97 10.605 17.38 10.555 17.69 10.525C17.99 10.495 18.21 10.725 18.33 10.375C18.36 10.285 18.33 10.185 18.27 10.115C18.27 10.115 18.25 10.095 18.25 10.085V10.065H18.24ZM14.57 12.035C14.59 11.585 14.98 11.455 14.96 10.985L15.04 10.915L15.28 10.995C15.33 11.065 14.86 12.145 14.56 12.045H14.57V12.035Z" fill="black"/>
<path d="M13.49 9.585C12.62 8.975 11.65 10.525 11.63 11.355C11.63 11.605 11.71 11.825 11.71 12.005C11.71 12.385 10.77 13.285 10.38 12.925C9.80001 12.385 10.37 10.585 10.12 9.835C10.88 9.265 12.3 8.735 12.03 7.425C11.95 7.025 11.13 6.825 10.8 6.815C10.48 6.795 9.95001 7.125 9.81001 7.105C9.72001 7.095 9.46001 6.805 9.32001 6.815C9.04001 6.835 8.74001 7.645 8.57001 7.915C8.11001 8.655 6.38001 12.195 6.18001 13.035C6.13001 13.265 6.42001 13.475 6.44001 13.685C6.76001 13.995 7.89001 10.595 8.05001 10.475C8.12001 10.425 8.35001 10.535 8.51001 10.525C8.70001 10.505 8.98001 10.285 9.17001 10.215L9.34001 10.325V11.695C9.34001 12.065 9.72001 12.975 9.95001 13.265C10.66 14.155 11.34 13.435 11.95 12.865C12.03 12.785 12.06 12.625 12.13 12.585C12.25 12.505 12.65 12.545 12.92 12.425C13.19 12.295 13.71 11.835 13.86 11.555C14.36 10.655 13.78 10.405 13.49 9.605V9.585ZM8.90001 9.475C8.73001 9.515 8.66001 9.715 8.49001 9.705C9.05001 8.785 9.37001 7.695 10.47 7.455C10.67 7.415 11.04 7.375 11.19 7.545C11.57 7.965 10.61 8.735 10.34 8.925C10.19 9.025 9.47001 9.475 9.35001 9.495C9.22001 9.515 9.07001 9.425 8.89001 9.475H8.90001ZM12.64 11.795C12.87 11.515 13.01 11.155 13.2 10.855C13.26 10.755 13.28 10.635 13.43 10.665C13.58 10.995 12.81 11.945 12.64 11.795Z" fill="black"/>
<defs>
<linearGradient id="paint0_linear_190_328" x1="25.65" y1="2.275" x2="6.35001" y2="29.725" gradientUnits="userSpaceOnUse">
<stop stop-color="#FDFAF1"/>
<stop offset="1" stop-color="#A29885"/>
</linearGradient>
<linearGradient id="paint1_linear_190_328" x1="25.59" y1="2.355" x2="6.43" y2="29.605" gradientUnits="userSpaceOnUse">
<stop stop-color="#F8F3EB"/>
<stop offset="1" stop-color="#EDE2D5"/>
</linearGradient>
<linearGradient id="paint2_linear_190_328" x1="20.84" y1="28.945" x2="23.37" y2="28.945" gradientUnits="userSpaceOnUse">
<stop stop-color="#F8F3EB"/>
<stop offset="1" stop-color="#EDE2D5"/>
</linearGradient>
<linearGradient id="paint3_linear_190_328" x1="8.72003" y1="28.945" x2="10.09" y2="28.945" gradientUnits="userSpaceOnUse">
<stop stop-color="#F8F3EB"/>
<stop offset="1" stop-color="#EDE2D5"/>
</linearGradient>
<linearGradient id="paint4_linear_190_328" x1="14.12" y1="28.945" x2="15.27" y2="28.945" gradientUnits="userSpaceOnUse">
<stop stop-color="#F8F3EB"/>
<stop offset="1" stop-color="#EDE2D5"/>
</linearGradient>
<linearGradient id="paint5_linear_190_328" x1="13.72" y1="28.945" x2="14.87" y2="28.945" gradientUnits="userSpaceOnUse">
<stop stop-color="#F8F3EB"/>
<stop offset="1" stop-color="#EDE2D5"/>
</linearGradient>
<linearGradient id="paint6_linear_190_328" x1="12.33" y1="28.945" x2="13.49" y2="28.945" gradientUnits="userSpaceOnUse">
<stop stop-color="#F8F3EB"/>
<stop offset="1" stop-color="#EDE2D5"/>
</linearGradient>
<linearGradient id="paint7_linear_190_328" x1="24.26" y1="28.935" x2="26.03" y2="28.935" gradientUnits="userSpaceOnUse">
<stop stop-color="#F8F3EB"/>
<stop offset="1" stop-color="#EDE2D5"/>
</linearGradient>
<linearGradient id="paint8_linear_190_328" x1="6.19002" y1="28.895" x2="8.24002" y2="28.895" gradientUnits="userSpaceOnUse">
<stop stop-color="#F8F3EB"/>
<stop offset="1" stop-color="#EDE2D5"/>
</linearGradient>
<linearGradient id="paint9_linear_190_328" x1="18.04" y1="28.945" x2="20.57" y2="28.945" gradientUnits="userSpaceOnUse">
<stop stop-color="#F8F3EB"/>
<stop offset="1" stop-color="#EDE2D5"/>
</linearGradient>
<linearGradient id="paint10_linear_190_328" x1="15" y1="28.945" x2="18.63" y2="28.945" gradientUnits="userSpaceOnUse">
<stop stop-color="#F8F3EB"/>
<stop offset="1" stop-color="#EDE2D5"/>
</linearGradient>
<linearGradient id="paint11_linear_190_328" x1="14.92" y1="5.845" x2="16.62" y2="3.055" gradientUnits="userSpaceOnUse">
<stop stop-color="#FDFAF1"/>
<stop offset="1" stop-color="#A29885"/>
</linearGradient>
<linearGradient id="paint12_linear_190_328" x1="103.221" y1="-0.065865" x2="99.2871" y2="-12.4355" gradientUnits="userSpaceOnUse">
<stop stop-color="#FFFBEC" stop-opacity="0.3"/>
<stop offset="1" stop-color="#FFEDD0" stop-opacity="0"/>
</linearGradient>
<linearGradient id="paint13_linear_190_328" x1="8.65002" y1="23.535" x2="13.02" y2="23.535" gradientUnits="userSpaceOnUse">
<stop stop-color="#F8F3EB"/>
<stop offset="1" stop-color="#EDE2D5"/>
</linearGradient>
<linearGradient id="paint14_linear_190_328" x1="14" y1="23.525" x2="18.65" y2="23.525" gradientUnits="userSpaceOnUse">
<stop stop-color="#F8F3EB"/>
<stop offset="1" stop-color="#EDE2D5"/>
</linearGradient>
<linearGradient id="paint15_linear_190_328" x1="19.57" y1="23.525" x2="23.64" y2="23.525" gradientUnits="userSpaceOnUse">
<stop stop-color="#F8F3EB"/>
<stop offset="1" stop-color="#EDE2D5"/>
</linearGradient>
<linearGradient id="paint16_linear_190_328" x1="8.61002" y1="19.005" x2="9.33002" y2="19.005" gradientUnits="userSpaceOnUse">
<stop stop-color="#F8F3EB"/>
<stop offset="1" stop-color="#EDE2D5"/>
</linearGradient>
<linearGradient id="paint17_linear_190_328" x1="10.34" y1="18.995" x2="11.04" y2="18.995" gradientUnits="userSpaceOnUse">
<stop stop-color="#F8F3EB"/>
<stop offset="1" stop-color="#EDE2D5"/>
</linearGradient>
<linearGradient id="paint18_linear_190_328" x1="12.07" y1="18.995" x2="12.78" y2="18.995" gradientUnits="userSpaceOnUse">
<stop stop-color="#F8F3EB"/>
<stop offset="1" stop-color="#EDE2D5"/>
</linearGradient>
<linearGradient id="paint19_linear_190_328" x1="13.81" y1="18.995" x2="14.52" y2="18.995" gradientUnits="userSpaceOnUse">
<stop stop-color="#F8F3EB"/>
<stop offset="1" stop-color="#EDE2D5"/>
</linearGradient>
<linearGradient id="paint20_linear_190_328" x1="15.54" y1="18.995" x2="16.25" y2="18.995" gradientUnits="userSpaceOnUse">
<stop stop-color="#F8F3EB"/>
<stop offset="1" stop-color="#EDE2D5"/>
</linearGradient>
<linearGradient id="paint21_linear_190_328" x1="17.28" y1="18.995" x2="17.98" y2="18.995" gradientUnits="userSpaceOnUse">
<stop stop-color="#F8F3EB"/>
<stop offset="1" stop-color="#EDE2D5"/>
</linearGradient>
<linearGradient id="paint22_linear_190_328" x1="19.02" y1="18.985" x2="19.72" y2="18.985" gradientUnits="userSpaceOnUse">
<stop stop-color="#F8F3EB"/>
<stop offset="1" stop-color="#EDE2D5"/>
</linearGradient>
<linearGradient id="paint23_linear_190_328" x1="20.73" y1="18.985" x2="21.48" y2="18.985" gradientUnits="userSpaceOnUse">
<stop stop-color="#F8F3EB"/>
<stop offset="1" stop-color="#EDE2D5"/>
</linearGradient>
<linearGradient id="paint24_linear_190_328" x1="22.45" y1="18.995" x2="23.23" y2="18.995" gradientUnits="userSpaceOnUse">
<stop stop-color="#F8F3EB"/>
<stop offset="1" stop-color="#EDE2D5"/>
</linearGradient>
</defs>
</svg>
